<?xml version="1.0" standalone="no"?>
<!DOCTYPE svg PUBLIC "-//W3C//DTD SVG 20010904//EN"
 "http://www.w3.org/TR/2001/REC-SVG-20010904/DTD/svg10.dtd">
<svg version="1.0" xmlns="http://www.w3.org/2000/svg"
 width="300.000000pt" height="300.000000pt" viewBox="0 0 300.000000 300.000000"
 preserveAspectRatio="xMidYMid meet">
<metadata>
Created by potrace 1.10, written by Peter Selinger 2001-2011
</metadata>
<g transform="translate(0.000000,300.000000) scale(0.100000,-0.100000)"
fill="#000000" stroke="none">
<path d="M1501 2509 l-54 -31 -61 14 c-74 18 -94 12 -158 -48 -44 -41 -51 -44
-101 -44 -66 0 -99 -22 -130 -89 -20 -41 -28 -48 -77 -64 -71 -22 -91 -44
-105 -114 -10 -52 -16 -62 -60 -95 -66 -50 -76 -70 -68 -144 5 -57 3 -65 -22
-98 -25 -33 -28 -43 -25 -109 3 -101 3 -132 1 -219 -3 -70 0 -80 24 -113 25
-32 27 -40 21 -94 -9 -75 4 -103 65 -141 53 -34 54 -37 65 -106 9 -59 37 -89
98 -105 50 -12 60 -21 96 -88 30 -55 58 -71 127 -71 50 0 56 -3 103 -50 55
-55 74 -60 156 -38 43 12 49 11 95 -15 62 -34 108 -35 166 0 43 25 48 26 102
15 90 -19 99 -17 152 38 46 48 51 50 101 50 70 0 98 16 128 71 36 67 46 76 96
88 59 15 90 47 99 102 11 71 14 76 64 108 61 39 74 67 65 142 -6 55 -5 60 26
99 32 40 32 42 26 113 -8 85 -8 119 0 209 5 64 4 69 -27 112 -30 42 -31 49
-26 103 8 71 -2 91 -68 141 -44 33 -50 43 -60 95 -14 70 -34 92 -105 114 -49
16 -57 23 -77 64 -31 67 -64 89 -130 89 -50 0 -57 3 -101 44 -65 61 -84 67
-156 48 l-60 -15 -57 32 c-31 17 -65 31 -75 31 -11 0 -43 -14 -73 -31z m136
-40 c40 -23 62 -30 86 -26 18 3 51 9 75 13 42 7 45 5 92 -41 43 -43 54 -48
102 -52 90 -7 96 -10 123 -62 33 -66 47 -78 110 -97 59 -17 54 -10 82 -124 6
-26 23 -46 66 -78 l58 -44 -7 -54 c-8 -69 -2 -91 41 -145 19 -24 35 -49 35
-55 0 -7 -9 -31 -20 -55 -25 -56 -25 -89 1 -149 23 -54 21 -64 -34 -132 -28
-36 -30 -41 -24 -104 6 -64 5 -68 -21 -90 -15 -13 -42 -36 -60 -51 -25 -22
-34 -40 -42 -83 -6 -30 -15 -59 -20 -65 -6 -5 -38 -21 -71 -35 -54 -22 -64
-31 -91 -80 -16 -30 -32 -57 -34 -60 -3 -2 -37 -7 -75 -11 -67 -6 -73 -8 -119
-54 l-49 -48 -72 13 -72 14 -61 -34 -60 -33 -62 33 -61 34 -72 -14 -72 -13
-49 48 c-46 46 -52 48 -119 54 -38 4 -73 10 -77 14 -4 4 -20 31 -34 60 -24 47
-33 55 -88 77 -34 14 -66 30 -72 35 -5 6 -14 35 -20 65 -8 43 -17 61 -42 83
-18 15 -45 38 -60 51 -26 22 -27 27 -22 87 5 58 3 67 -20 99 -58 80 -60 87
-37 140 26 61 26 89 0 150 -23 53 -21 60 37 140 24 32 25 41 20 102 l-6 67 57
43 c43 32 60 53 66 78 28 114 23 108 80 124 58 17 84 40 116 103 23 45 30 49
119 56 48 4 59 9 102 52 45 44 51 47 87 41 116 -18 116 -18 168 13 28 17 54
31 59 31 5 0 33 -14 63 -31z"/>
<path d="M1532 2324 c-2 -39 -19 -73 -60 -114 -22 -22 -24 -31 -19 -80 4 -35
12 -59 23 -67 23 -17 125 -17 146 0 34 27 52 142 24 153 -8 3 -18 19 -21 35
-4 16 -11 32 -16 35 -6 3 -14 17 -19 30 -6 15 -18 24 -30 24 -12 0 -18 5 -15
10 3 6 2 10 -3 10 -5 0 -9 -16 -10 -36z m29 -45 c-13 -11 -26 -17 -29 -15 -3
3 6 14 19 25 13 11 26 17 29 14 3 -2 -6 -13 -19 -24z m23 -36 c-10 -7 -32 -13
-48 -13 -29 1 -30 1 -12 15 11 8 25 15 32 15 6 0 18 7 25 17 13 15 14 15 18
-2 2 -10 -5 -25 -15 -32z m20 -30 c-21 -15 -90 -18 -99 -3 -4 6 9 10 32 10 22
0 48 6 59 14 13 10 20 11 23 4 2 -6 -4 -17 -15 -25z m42 -15 c19 -30 -71 -48
-155 -32 -24 5 -29 10 -21 19 7 9 30 11 74 8 41 -4 66 -2 70 6 9 14 23 14 32
-1z m-167 -98 l-1 -35 -8 30 c-4 17 -8 39 -9 50 -1 16 1 17 9 5 5 -8 9 -31 9
-50z m165 33 c-8 -33 -23 -63 -24 -47 0 27 13 74 21 74 5 0 6 -12 3 -27z
m-144 -23 c0 -22 -2 -40 -4 -40 -2 0 -6 18 -8 40 -2 22 0 40 4 40 5 0 8 -18 8
-40z m38 -7 l-1 -48 -6 45 -5 45 -6 -45 -7 -45 -1 48 c-2 36 2 47 13 47 11 0
15 -11 13 -47z m75 10 c-8 -52 -13 -54 -13 -5 0 23 4 42 9 42 6 0 7 -17 4 -37z
m-23 0 c0 -16 -5 -35 -11 -43 -8 -11 -9 -6 -7 23 2 20 1 37 -3 37 -4 0 -10
-17 -12 -37 l-4 -38 -1 43 c-2 36 1 42 18 42 15 0 20 -7 20 -27z"/>
<path d="M1616 1953 c-38 -78 -98 -233 -93 -246 2 -7 28 21 57 61 29 40 55 71
57 68 2 -2 -6 -24 -19 -50 -20 -43 -21 -47 -6 -63 16 -15 19 -15 43 1 20 13
30 15 38 7 6 -6 20 -11 32 -11 28 0 85 37 85 55 0 20 -9 19 -34 -4 -12 -11
-30 -21 -40 -23 -31 -5 -29 19 3 38 38 23 40 38 4 29 -27 -6 -27 -6 -9 14 12
13 26 19 38 15 11 -3 20 1 24 11 9 22 -1 29 -31 21 -40 -10 -68 -43 -61 -72 4
-15 2 -24 -6 -24 -6 0 -22 -10 -35 -22 -13 -12 -25 -19 -28 -17 -2 3 5 31 17
62 11 32 18 60 15 63 -11 12 -42 -7 -62 -36 -40 -61 -34 -27 12 63 26 50 49
95 51 100 2 4 -3 7 -12 7 -9 0 -26 -21 -40 -47z"/>
<path d="M1570 1982 c-8 -2 -22 -11 -31 -19 -22 -19 -139 -39 -148 -25 -10 17
-35 -4 -27 -23 5 -14 15 -17 54 -12 26 2 56 8 66 13 19 7 19 7 -1 -27 -11 -19
-33 -57 -48 -86 -15 -29 -31 -50 -36 -47 -9 5 -29 -28 -29 -50 0 -24 33 -19
50 7 8 12 37 65 65 117 40 75 57 98 83 109 42 19 44 57 2 43z"/>
<path d="M2266 1738 c-7 -13 -20 -34 -27 -48 -8 -14 -23 -25 -36 -26 -18 0
-20 3 -12 17 15 28 -8 33 -26 5 -17 -26 -62 -40 -68 -22 -3 7 -11 5 -23 -6
-22 -21 -14 -31 26 -31 17 0 30 -1 30 -2 0 -18 -54 -116 -74 -134 -38 -36 -42
-19 -12 44 14 31 24 61 20 66 -9 15 -44 -20 -44 -43 0 -23 -65 -96 -76 -85 -4
4 4 32 19 63 32 66 32 64 6 64 -12 0 -38 -17 -57 -37 -21 -23 -31 -29 -23 -15
12 22 8 42 -9 42 -5 0 -23 -12 -42 -27 -18 -15 -27 -20 -20 -13 15 17 16 44 1
34 -13 -8 -69 -123 -69 -141 0 -26 19 -12 49 36 30 46 71 91 71 78 0 -4 -11
-30 -25 -59 -38 -79 -15 -77 44 2 54 73 81 89 41 26 -12 -20 -20 -46 -18 -58
4 -29 39 -35 63 -11 13 13 20 14 23 5 5 -16 47 -15 64 2 12 11 17 11 33 0 10
-7 22 -11 28 -7 5 3 18 6 28 7 10 1 39 29 64 64 49 67 66 77 39 24 -19 -39
-15 -76 9 -80 21 -4 67 34 67 55 0 19 -13 16 -28 -7 -7 -11 -19 -20 -26 -20
-12 0 -10 13 9 60 14 35 20 62 14 66 -13 8 -56 -21 -69 -47 -7 -11 -14 -19
-16 -16 -3 3 15 46 40 96 25 50 46 93 46 96 0 13 -21 3 -34 -17z m-70 -151
c-13 -32 -34 -69 -46 -82 -49 -52 -53 -18 -11 72 22 46 35 62 53 65 13 2 24 3
25 3 1 -1 -8 -27 -21 -58z"/>
<path d="M1653 1670 c-56 -25 -93 -63 -93 -94 0 -30 19 -42 83 -51 26 -4 50
-12 54 -18 18 -29 -105 -79 -141 -57 -15 9 -20 9 -27 -1 -16 -26 12 -42 67
-36 127 13 188 103 93 136 -18 6 -41 11 -53 11 -12 0 -28 4 -36 10 -12 7 -12
12 4 29 26 28 109 68 113 54 6 -17 57 1 61 20 5 24 -70 22 -125 -3z"/>
<path d="M1343 1652 c-7 -4 -33 -55 -58 -112 -44 -102 -68 -140 -88 -140 -11
0 -2 43 19 84 8 16 14 31 14 32 0 2 -19 2 -42 0 -33 -3 -49 -11 -75 -39 -38
-42 -51 -81 -33 -102 18 -21 28 -19 61 14 25 26 29 27 29 10 0 -23 27 -36 42
-21 6 6 16 8 23 6 7 -3 17 7 23 25 l11 31 31 -31 c30 -30 31 -31 56 -14 19 12
29 14 39 5 20 -17 68 -4 95 25 30 32 19 43 -16 16 -28 -22 -64 -28 -64 -11 0
5 11 17 25 26 30 20 33 38 5 29 -11 -3 -20 -2 -20 3 0 11 30 26 44 23 11 -2
36 19 36 30 0 20 -52 7 -82 -20 -26 -23 -30 -32 -21 -43 10 -11 5 -19 -23 -42
-33 -26 -36 -27 -54 -11 -18 16 -17 18 21 56 21 21 39 43 39 48 0 16 -23 26
-28 12 -6 -18 -53 -71 -62 -71 -5 0 11 43 35 95 42 91 45 104 18 87z m-153
-161 c0 -5 -20 -31 -45 -58 -31 -33 -44 -43 -45 -31 0 10 16 36 36 58 35 39
54 50 54 31z"/>
<path d="M1022 1613 c-72 -35 -141 -131 -142 -195 0 -27 30 -68 49 -68 44 0
131 69 131 104 0 17 -5 15 -37 -16 -45 -43 -79 -62 -99 -54 -47 18 30 162 108
202 48 25 56 10 16 -29 -43 -41 -46 -47 -19 -47 23 0 81 64 81 89 0 33 -38 39
-88 14z"/>
<path d="M1240 1001 c0 -17 5 -31 11 -31 5 0 7 5 4 10 -3 6 1 10 10 10 22 0
15 34 -8 38 -13 3 -17 -3 -17 -27z"/>
<path d="M1291 998 c0 -18 3 -27 6 -20 4 10 8 10 19 1 9 -8 14 -8 14 -1 0 6
-8 16 -17 22 -17 11 -17 11 0 6 12 -4 17 -2 15 6 -3 7 -12 14 -21 16 -13 3
-17 -4 -16 -30z"/>
<path d="M1347 1023 c-4 -3 -7 -17 -7 -30 0 -17 5 -23 23 -22 21 0 21 1 2 9
-11 5 -14 9 -7 9 7 1 10 6 6 12 -3 6 0 15 7 20 11 7 11 9 -2 9 -9 0 -19 -3
-22 -7z"/>
<path d="M1390 999 c0 -25 3 -30 10 -19 5 8 10 11 10 6 0 -5 8 -2 17 5 15 12
16 12 10 -3 -3 -10 -2 -18 3 -18 6 0 10 11 10 25 0 26 -14 33 -26 13 -5 -7
-11 -5 -21 7 -12 17 -13 16 -13 -16z"/>
<path d="M1462 1000 c0 -19 2 -27 5 -17 2 9 2 25 0 35 -3 9 -5 1 -5 -18z"/>
<path d="M1487 1022 c-13 -19 2 -54 21 -50 11 2 18 14 19 33 1 17 0 23 -3 15
-16 -43 -17 -44 -23 -15 -4 20 -9 26 -14 17z"/>
<path d="M1541 1000 c0 -33 1 -34 10 -11 6 16 6 28 -1 35 -7 7 -10 -1 -9 -24z"/>
<path d="M1586 1021 c-4 -5 -2 -20 3 -33 9 -21 10 -21 10 10 1 32 -3 39 -13
23z"/>
<path d="M1631 1011 c-11 -20 -2 -32 29 -43 20 -7 26 42 8 54 -19 12 -26 10
-37 -11z m37 -13 c-6 -18 -28 -21 -28 -4 0 9 7 16 16 16 9 0 14 -5 12 -12z"/>
<path d="M1693 1005 c1 -19 8 -31 19 -33 20 -4 35 35 19 51 -8 8 -11 3 -11
-18 0 -31 -14 -25 -23 10 -3 12 -5 8 -4 -10z"/>
<path d="M1763 1012 c3 -12 2 -20 -3 -17 -4 3 -10 -1 -13 -9 -4 -10 2 -13 19
-12 28 1 30 14 8 42 -15 19 -15 18 -11 -4z"/>
<path d="M1801 1003 c-1 -25 3 -33 17 -33 11 0 13 3 6 8 -7 4 -14 18 -17 32
-4 21 -4 20 -6 -7z"/>
<path d="M1874 1014 c3 -9 6 -23 7 -32 1 -11 3 -8 7 6 9 30 24 31 38 3 10 -20
12 -21 18 -4 3 10 9 25 13 33 5 13 4 13 -9 2 -11 -9 -18 -10 -23 -2 -3 5 -18
10 -32 10 -19 0 -24 -4 -19 -16z"/>
<path d="M1840 995 c0 -14 5 -25 10 -25 6 0 10 11 10 25 0 14 -4 25 -10 25 -5
0 -10 -11 -10 -25z"/>
<path d="M1560 990 c0 -5 5 -10 10 -10 6 0 10 5 10 10 0 6 -4 10 -10 10 -5 0
-10 -4 -10 -10z"/>
</g>
</svg>
