<?xml version="1.0" standalone="no"?>
<!DOCTYPE svg PUBLIC "-//W3C//DTD SVG 20010904//EN"
 "http://www.w3.org/TR/2001/REC-SVG-20010904/DTD/svg10.dtd">
<svg version="1.0" xmlns="http://www.w3.org/2000/svg"
 width="100.000000pt" height="92.000000pt" viewBox="0 0 100.000000 92.000000"
 preserveAspectRatio="xMidYMid meet">

<g transform="translate(0.000000,92.000000) scale(0.100000,-0.100000)"
fill="#000000" stroke="none">
<path d="M405 876 c-81 -20 -146 -56 -206 -115 -267 -267 -77 -721 301 -721
213 0 385 146 422 359 37 218 -115 433 -340 480 -66 14 -112 13 -177 -3z m99
-112 c3 -8 27 -24 54 -35 40 -17 51 -28 70 -67 24 -51 23 -70 -6 -150 -27 -73
-41 -85 -109 -89 -81 -6 -112 15 -138 93 -30 92 -30 121 1 166 25 35 98 98
115 98 4 0 10 -7 13 -16z m-261 -404 c9 -8 -12 -70 -24 -70 -5 0 -4 12 2 27
14 38 -5 51 -21 14 -7 -17 -16 -31 -21 -31 -12 0 -11 6 6 40 9 17 11 30 5 30
-5 0 -10 4 -10 10 0 9 44 -5 63 -20z m527 -1 c0 -6 7 -9 15 -5 15 5 50 -33 39
-43 -3 -3 -10 2 -15 12 -14 25 -32 22 -19 -3 6 -11 7 -20 2 -20 -7 0 -16 14
-40 63 -2 4 1 7 7 7 6 0 11 -5 11 -11z m-53 -15 c-3 -4 0 -19 9 -35 8 -16 10
-29 5 -29 -5 0 -14 14 -20 31 -14 39 -14 39 1 39 6 0 9 -3 5 -6z m40 -29 c13
-29 -1 -34 -17 -6 -12 23 -13 31 -2 31 4 0 12 -11 19 -25z m-487 8 c-1 -21
-13 -52 -20 -48 -10 6 0 55 11 55 5 0 9 -3 9 -7z m124 1 c9 -3 16 -11 16 -16
0 -6 -8 -7 -17 -4 -19 8 -34 -10 -26 -31 8 -20 29 -16 45 9 18 27 48 18 48
-15 0 -19 -5 -24 -22 -22 -13 1 -25 3 -28 5 -3 1 -16 3 -30 3 -28 2 -40 38
-20 63 14 16 13 16 34 8z m-78 -15 c3 -6 1 -16 -6 -22 -10 -9 -12 -8 -7 6 4 9
2 17 -3 17 -15 0 -12 -37 3 -43 7 -4 8 -6 1 -6 -6 -1 -17 6 -24 14 -10 12 -10
18 0 30 15 18 26 19 36 4z m175 -16 c0 -25 1 -26 9 -8 10 23 11 21 14 -17 1
-16 -2 -28 -6 -28 -4 0 -8 6 -9 13 0 10 -2 10 -6 0 -10 -27 -23 -11 -23 27 0
44 20 56 21 13z m210 -1 c5 -13 4 -22 -1 -22 -6 0 -10 7 -10 15 0 8 -5 15 -11
15 -6 0 -9 -9 -6 -20 3 -11 1 -20 -4 -20 -5 0 -9 6 -9 14 0 8 -5 18 -12 22 -8
5 -9 0 -6 -14 4 -12 3 -24 -2 -27 -4 -3 -10 6 -12 20 -4 19 0 26 21 34 34 12
42 10 52 -17z m-100 0 c-8 -3 -7 -8 5 -16 12 -9 14 -15 6 -20 -7 -4 -12 -1
-12 6 0 9 -3 9 -10 -2 -8 -12 -10 -10 -10 11 0 30 8 41 23 32 7 -4 7 -8 -2
-11z m-36 -3 c4 -6 4 -13 0 -17 -3 -3 -10 0 -15 8 -8 13 -10 13 -10 0 0 -9 5
-21 12 -28 8 -8 8 -12 1 -12 -6 0 -16 7 -23 15 -10 12 -10 18 0 30 15 18 26
19 35 4z"/>
<path d="M463 749 c-23 -23 -15 -74 20 -125 30 -45 35 -49 75 -50 34 -1 42 2
42 17 0 10 -12 25 -27 33 -41 21 -77 63 -88 102 -8 28 -12 33 -22 23z"/>
<path d="M510 724 c0 -2 23 -14 50 -27 39 -19 47 -20 35 -7 -13 15 -85 44 -85
34z"/>
<path d="M412 708 c-20 -20 -13 -63 17 -106 23 -30 35 -39 50 -35 20 5 20 6
-5 39 -14 18 -31 52 -38 74 -9 31 -14 38 -24 28z"/>
<path d="M540 670 c19 -16 48 -40 63 -54 l28 -26 -3 27 c-2 22 -14 34 -53 55
-65 36 -79 35 -35 -2z"/>
<path d="M370 632 c0 -34 23 -64 44 -56 11 4 9 13 -10 42 -34 49 -34 50 -34
14z"/>
<path d="M390 520 c21 -61 35 -78 25 -30 -11 50 -23 80 -33 80 -5 0 -1 -23 8
-50z"/>
<path d="M606 562 c-3 -5 -8 -29 -11 -53 l-5 -44 13 41 c8 23 17 46 21 53 4 6
3 11 -3 11 -5 0 -12 -4 -15 -8z"/>
<path d="M415 549 c4 -5 10 -31 14 -57 4 -34 11 -48 24 -50 17 -3 18 1 12 45
-9 68 -12 73 -35 73 -12 0 -18 -4 -15 -11z"/>
<path d="M487 553 c-4 -3 -7 -30 -7 -60 0 -48 2 -53 23 -53 20 0 22 4 20 48 0
26 -1 53 -2 60 -1 13 -23 17 -34 5z"/>
<path d="M547 553 c-13 -12 -8 -115 5 -111 12 4 19 24 31 86 5 27 3 32 -12 32
-10 0 -21 -3 -24 -7z"/>
<path d="M424 279 c-3 -6 -1 -16 5 -22 8 -8 11 -5 11 11 0 24 -5 28 -16 11z"/>
</g>
</svg>
