<?xml version="1.0" encoding="UTF-8"?>
<svg xmlns="http://www.w3.org/2000/svg" xmlns:xlink="http://www.w3.org/1999/xlink" width="250pt" height="250pt" viewBox="0 0 250 250" version="1.1">
<g id="surface1">
<path style=" stroke:none;fill-rule:nonzero;fill:rgb(80%,0%,0%);fill-opacity:1;" d="M 125.082031 40.917969 L 120.582031 43.5 L 115.5 42.332031 C 109.332031 40.832031 107.667969 41.332031 102.332031 46.332031 C 98.667969 49.75 98.082031 50 93.917969 50 C 88.417969 50 85.667969 51.832031 83.082031 57.417969 C 81.417969 60.832031 80.75 61.417969 76.667969 62.75 C 70.75 64.582031 69.082031 66.417969 67.917969 72.25 C 67.082031 76.582031 66.582031 77.417969 62.917969 80.167969 C 57.417969 84.332031 56.582031 86 57.25 92.167969 C 57.667969 96.917969 57.5 97.582031 55.417969 100.332031 C 53.332031 103.082031 53.082031 103.917969 53.332031 109.417969 C 53.582031 117.832031 53.582031 120.417969 53.417969 127.667969 C 53.167969 133.5 53.417969 134.332031 55.417969 137.082031 C 57.5 139.75 57.667969 140.417969 57.167969 144.917969 C 56.417969 151.167969 57.5 153.5 62.582031 156.667969 C 67 159.5 67.082031 159.75 68 165.5 C 68.75 170.417969 71.082031 172.917969 76.167969 174.25 C 80.332031 175.25 81.167969 176 84.167969 181.582031 C 86.667969 186.167969 89 187.5 94.75 187.5 C 98.917969 187.5 99.417969 187.75 103.332031 191.667969 C 107.917969 196.25 109.5 196.667969 116.332031 194.832031 C 119.917969 193.832031 120.417969 193.917969 124.25 196.082031 C 129.417969 198.917969 133.25 199 138.082031 196.082031 C 141.667969 194 142.082031 193.917969 146.582031 194.832031 C 154.082031 196.417969 154.832031 196.25 159.25 191.667969 C 163.082031 187.667969 163.5 187.5 167.667969 187.5 C 173.5 187.5 175.832031 186.167969 178.332031 181.582031 C 181.332031 176 182.167969 175.25 186.332031 174.25 C 191.25 173 193.832031 170.332031 194.582031 165.75 C 195.5 159.832031 195.75 159.417969 199.917969 156.75 C 205 153.5 206.082031 151.167969 205.332031 144.917969 C 204.832031 140.332031 204.917969 139.917969 207.5 136.667969 C 210.167969 133.332031 210.167969 133.167969 209.667969 127.25 C 209 120.167969 209 117.332031 209.667969 109.832031 C 210.082031 104.5 210 104.082031 207.417969 100.5 C 204.917969 97 204.832031 96.417969 205.25 91.917969 C 205.917969 86 205.082031 84.332031 199.582031 80.167969 C 195.917969 77.417969 195.417969 76.582031 194.582031 72.25 C 193.417969 66.417969 191.75 64.582031 185.832031 62.75 C 181.75 61.417969 181.082031 60.832031 179.417969 57.417969 C 176.832031 51.832031 174.082031 50 168.582031 50 C 164.417969 50 163.832031 49.75 160.167969 46.332031 C 154.75 41.25 153.167969 40.75 147.167969 42.332031 L 142.167969 43.582031 L 137.417969 40.917969 C 134.832031 39.5 132 38.332031 131.167969 38.332031 C 130.25 38.332031 127.582031 39.5 125.082031 40.917969 Z M 136.417969 44.25 C 139.75 46.167969 141.582031 46.75 143.582031 46.417969 C 145.082031 46.167969 147.832031 45.667969 149.832031 45.332031 C 153.332031 44.75 153.582031 44.917969 157.5 48.75 C 161.082031 52.332031 162 52.75 166 53.082031 C 173.5 53.667969 174 53.917969 176.25 58.25 C 179 63.75 180.167969 64.75 185.417969 66.332031 C 190.332031 67.75 189.917969 67.167969 192.25 76.667969 C 192.75 78.832031 194.167969 80.5 197.75 83.167969 L 202.582031 86.832031 L 202 91.332031 C 201.332031 97.082031 201.832031 98.917969 205.417969 103.417969 C 207 105.417969 208.332031 107.5 208.332031 108 C 208.332031 108.582031 207.582031 110.582031 206.667969 112.582031 C 204.582031 117.25 204.582031 120 206.75 125 C 208.667969 129.5 208.5 130.332031 203.917969 136 C 201.582031 139 201.417969 139.417969 201.917969 144.667969 C 202.417969 150 202.332031 150.332031 200.167969 152.167969 C 198.917969 153.25 196.667969 155.167969 195.167969 156.417969 C 193.082031 158.25 192.332031 159.75 191.667969 163.332031 C 191.167969 165.832031 190.417969 168.25 190 168.75 C 189.5 169.167969 186.832031 170.5 184.082031 171.667969 C 179.582031 173.5 178.75 174.25 176.5 178.332031 C 175.167969 180.832031 173.832031 183.082031 173.667969 183.332031 C 173.417969 183.5 170.582031 183.917969 167.417969 184.25 C 161.832031 184.75 161.332031 184.917969 157.5 188.75 L 153.417969 192.75 L 147.417969 191.667969 L 141.417969 190.5 L 136.332031 193.332031 L 131.332031 196.082031 L 126.167969 193.332031 L 121.082031 190.5 L 115.082031 191.667969 L 109.082031 192.75 L 105 188.75 C 101.167969 184.917969 100.667969 184.75 95.082031 184.25 C 91.917969 183.917969 89 183.417969 88.667969 183.082031 C 88.332031 182.75 87 180.5 85.832031 178.082031 C 83.832031 174.167969 83.082031 173.5 78.5 171.667969 C 75.667969 170.5 73 169.167969 72.5 168.75 C 72.082031 168.25 71.332031 165.832031 70.832031 163.332031 C 70.167969 159.75 69.417969 158.25 67.332031 156.417969 C 65.832031 155.167969 63.582031 153.25 62.332031 152.167969 C 60.167969 150.332031 60.082031 149.917969 60.5 144.917969 C 60.917969 140.082031 60.75 139.332031 58.832031 136.667969 C 54 130 53.832031 129.417969 55.75 125 C 57.917969 119.917969 57.917969 117.582031 55.75 112.5 C 53.832031 108.082031 54 107.5 58.832031 100.832031 C 60.832031 98.167969 60.917969 97.417969 60.5 92.332031 L 60 86.75 L 64.75 83.167969 C 68.332031 80.5 69.75 78.75 70.25 76.667969 C 72.582031 67.167969 72.167969 67.667969 76.917969 66.332031 C 81.75 64.917969 83.917969 63 86.582031 57.75 C 88.5 54 89.082031 53.667969 96.5 53.082031 C 100.5 52.75 101.417969 52.332031 105 48.75 C 108.75 45.082031 109.25 44.832031 112.25 45.332031 C 121.917969 46.832031 121.917969 46.832031 126.25 44.25 C 128.582031 42.832031 130.75 41.667969 131.167969 41.667969 C 131.582031 41.667969 133.917969 42.832031 136.417969 44.25 Z M 136.417969 44.25 "/>
<path style=" stroke:none;fill-rule:nonzero;fill:rgb(80%,0%,0%);fill-opacity:1;" d="M 127.667969 56.332031 C 127.5 59.582031 126.082031 62.417969 122.667969 65.832031 C 120.832031 67.667969 120.667969 68.417969 121.082031 72.5 C 121.417969 75.417969 122.082031 77.417969 123 78.082031 C 124.917969 79.5 133.417969 79.5 135.167969 78.082031 C 138 75.832031 139.5 66.25 137.167969 65.332031 C 136.5 65.082031 135.667969 63.75 135.417969 62.417969 C 135.082031 61.082031 134.5 59.75 134.082031 59.5 C 133.582031 59.25 132.917969 58.082031 132.5 57 C 132 55.75 131 55 130 55 C 129 55 128.5 54.582031 128.75 54.167969 C 129 53.667969 128.917969 53.332031 128.5 53.332031 C 128.082031 53.332031 127.75 54.667969 127.667969 56.332031 Z M 130.082031 60.082031 C 129 61 127.917969 61.5 127.667969 61.332031 C 127.417969 61.082031 128.167969 60.167969 129.25 59.25 C 130.332031 58.332031 131.417969 57.832031 131.667969 58.082031 C 131.917969 58.25 131.167969 59.167969 130.082031 60.082031 Z M 132 63.082031 C 131.167969 63.667969 129.332031 64.167969 128 64.167969 C 125.582031 64.082031 125.5 64.082031 127 62.917969 C 127.917969 62.25 129.082031 61.667969 129.667969 61.667969 C 130.167969 61.667969 131.167969 61.082031 131.75 60.25 C 132.832031 59 132.917969 59 133.25 60.417969 C 133.417969 61.25 132.832031 62.5 132 63.082031 Z M 133.667969 65.582031 C 131.917969 66.832031 126.167969 67.082031 125.417969 65.832031 C 125.082031 65.332031 126.167969 65 128.082031 65 C 129.917969 65 132.082031 64.5 133 63.832031 C 134.082031 63 134.667969 62.917969 134.917969 63.5 C 135.082031 64 134.582031 64.917969 133.667969 65.582031 Z M 137.167969 66.832031 C 138.75 69.332031 131.25 70.832031 124.25 69.5 C 122.25 69.082031 121.832031 68.667969 122.5 67.917969 C 123.082031 67.167969 125 67 128.667969 67.25 C 132.082031 67.582031 134.167969 67.417969 134.5 66.75 C 135.25 65.582031 136.417969 65.582031 137.167969 66.832031 Z M 123.25 75 L 123.167969 77.917969 L 122.5 75.417969 C 122.167969 74 121.832031 72.167969 121.75 71.25 C 121.667969 69.917969 121.832031 69.832031 122.5 70.832031 C 122.917969 71.5 123.25 73.417969 123.25 75 Z M 137 72.25 C 136.332031 75 135.082031 77.5 135 76.167969 C 135 73.917969 136.082031 70 136.75 70 C 137.167969 70 137.25 71 137 72.25 Z M 125 74.167969 C 125 76 124.832031 77.5 124.667969 77.5 C 124.5 77.5 124.167969 76 124 74.167969 C 123.832031 72.332031 124 70.832031 124.332031 70.832031 C 124.75 70.832031 125 72.332031 125 74.167969 Z M 128.167969 74.75 L 128.082031 78.75 L 127.582031 75 L 127.167969 71.25 L 126.667969 75 L 126.082031 78.75 L 126 74.75 C 125.832031 71.75 126.167969 70.832031 127.082031 70.832031 C 128 70.832031 128.332031 71.75 128.167969 74.75 Z M 134.417969 73.917969 C 133.75 78.25 133.332031 78.417969 133.332031 74.332031 C 133.332031 72.417969 133.667969 70.832031 134.082031 70.832031 C 134.582031 70.832031 134.667969 72.25 134.417969 73.917969 Z M 132.5 73.917969 C 132.5 75.25 132.082031 76.832031 131.582031 77.5 C 130.917969 78.417969 130.832031 78 131 75.582031 C 131.167969 73.917969 131.082031 72.5 130.75 72.5 C 130.417969 72.5 129.917969 73.917969 129.75 75.582031 L 129.417969 78.75 L 129.332031 75.167969 C 129.167969 72.167969 129.417969 71.667969 130.832031 71.667969 C 132.082031 71.667969 132.5 72.25 132.5 73.917969 Z M 132.5 73.917969 "/>
<path style=" stroke:none;fill-rule:nonzero;fill:rgb(80%,0%,0%);fill-opacity:1;" d="M 134.667969 87.25 C 131.5 93.75 126.5 106.667969 126.917969 107.75 C 127.082031 108.332031 129.25 106 131.667969 102.667969 C 134.082031 99.332031 136.25 96.75 136.417969 97 C 136.582031 97.167969 135.917969 99 134.832031 101.167969 C 133.167969 104.75 133.082031 105.082031 134.332031 106.417969 C 135.667969 107.667969 135.917969 107.667969 137.917969 106.332031 C 139.582031 105.25 140.417969 105.082031 141.082031 105.75 C 141.582031 106.25 142.75 106.667969 143.75 106.667969 C 146.082031 106.667969 150.832031 103.582031 150.832031 102.082031 C 150.832031 100.417969 150.082031 100.5 148 102.417969 C 147 103.332031 145.5 104.167969 144.667969 104.332031 C 142.082031 104.75 142.25 102.75 144.917969 101.167969 C 148.082031 99.25 148.25 98 145.25 98.75 C 143 99.25 143 99.25 144.5 97.582031 C 145.5 96.5 146.667969 96 147.667969 96.332031 C 148.582031 96.582031 149.332031 96.25 149.667969 95.417969 C 150.417969 93.582031 149.582031 93 147.082031 93.667969 C 143.75 94.5 141.417969 97.25 142 99.667969 C 142.332031 100.917969 142.167969 101.667969 141.5 101.667969 C 141 101.667969 139.667969 102.5 138.582031 103.5 C 137.5 104.5 136.5 105.082031 136.25 104.917969 C 136.082031 104.667969 136.667969 102.332031 137.667969 99.75 C 138.582031 97.082031 139.167969 94.75 138.917969 94.5 C 138 93.5 135.417969 95.082031 133.75 97.5 C 130.417969 102.582031 130.917969 99.75 134.75 92.25 C 136.917969 88.082031 138.832031 84.332031 139 83.917969 C 139.167969 83.582031 138.75 83.332031 138 83.332031 C 137.25 83.332031 135.832031 85.082031 134.667969 87.25 Z M 134.667969 87.25 "/>
<path style=" stroke:none;fill-rule:nonzero;fill:rgb(80%,0%,0%);fill-opacity:1;" d="M 130.832031 84.832031 C 130.167969 85 129 85.75 128.25 86.417969 C 126.417969 88 116.667969 89.667969 115.917969 88.5 C 115.082031 87.082031 113 88.832031 113.667969 90.417969 C 114.082031 91.582031 114.917969 91.832031 118.167969 91.417969 C 120.332031 91.25 122.832031 90.75 123.667969 90.332031 C 125.25 89.75 125.25 89.75 123.582031 92.582031 C 122.667969 94.167969 120.832031 97.332031 119.582031 99.75 C 118.332031 102.167969 117 103.917969 116.582031 103.667969 C 115.832031 103.25 114.167969 106 114.167969 107.832031 C 114.167969 109.832031 116.917969 109.417969 118.332031 107.25 C 119 106.25 121.417969 101.832031 123.75 97.5 C 127.082031 91.25 128.5 89.332031 130.667969 88.417969 C 134.167969 86.832031 134.332031 83.667969 130.832031 84.832031 Z M 130.832031 84.832031 "/>
<path style=" stroke:none;fill-rule:nonzero;fill:rgb(80%,0%,0%);fill-opacity:1;" d="M 188.832031 105.167969 C 188.25 106.25 187.167969 108 186.582031 109.167969 C 185.917969 110.332031 184.667969 111.25 183.582031 111.332031 C 182.082031 111.332031 181.917969 111.082031 182.582031 109.917969 C 183.832031 107.582031 181.917969 107.167969 180.417969 109.5 C 179 111.667969 175.25 112.832031 174.75 111.332031 C 174.5 110.75 173.832031 110.917969 172.832031 111.832031 C 171 113.582031 171.667969 114.417969 175 114.417969 C 176.417969 114.417969 177.5 114.5 177.5 114.582031 C 177.5 116.082031 173 124.25 171.332031 125.75 C 168.167969 128.75 167.832031 127.332031 170.332031 122.082031 C 171.5 119.5 172.332031 117 172 116.582031 C 171.25 115.332031 168.332031 118.25 168.332031 120.167969 C 168.332031 122.082031 162.917969 128.167969 162 127.25 C 161.667969 126.917969 162.332031 124.582031 163.582031 122 C 166.25 116.5 166.25 116.667969 164.082031 116.667969 C 163.082031 116.667969 160.917969 118.082031 159.332031 119.75 C 157.582031 121.667969 156.75 122.167969 157.417969 121 C 158.417969 119.167969 158.082031 117.5 156.667969 117.5 C 156.25 117.5 154.75 118.5 153.167969 119.75 C 151.667969 121 150.917969 121.417969 151.5 120.832031 C 152.75 119.417969 152.832031 117.167969 151.582031 118 C 150.5 118.667969 145.832031 128.25 145.832031 129.75 C 145.832031 131.917969 147.417969 130.75 149.917969 126.75 C 152.417969 122.917969 155.832031 119.167969 155.832031 120.25 C 155.832031 120.582031 154.917969 122.75 153.75 125.167969 C 150.582031 131.75 152.5 131.582031 157.417969 125 C 161.917969 118.917969 164.167969 117.582031 160.832031 122.832031 C 159.832031 124.5 159.167969 126.667969 159.332031 127.667969 C 159.667969 130.082031 162.582031 130.582031 164.582031 128.582031 C 165.667969 127.5 166.25 127.417969 166.5 128.167969 C 166.917969 129.5 170.417969 129.417969 171.832031 128 C 172.832031 127.082031 173.25 127.082031 174.582031 128 C 175.417969 128.582031 176.417969 128.917969 176.917969 128.582031 C 177.332031 128.332031 178.417969 128.082031 179.25 128 C 180.082031 127.917969 182.5 125.582031 184.582031 122.667969 C 188.667969 117.082031 190.082031 116.25 187.832031 120.667969 C 186.25 123.917969 186.582031 127 188.582031 127.332031 C 190.332031 127.667969 194.167969 124.5 194.167969 122.75 C 194.167969 121.167969 193.082031 121.417969 191.832031 123.332031 C 191.25 124.25 190.25 125 189.667969 125 C 188.667969 125 188.832031 123.917969 190.417969 120 C 191.582031 117.082031 192.082031 114.832031 191.582031 114.5 C 190.5 113.832031 186.917969 116.25 185.832031 118.417969 C 185.25 119.332031 184.667969 120 184.5 119.75 C 184.25 119.5 185.75 115.917969 187.832031 111.75 C 189.917969 107.582031 191.667969 104 191.667969 103.75 C 191.667969 102.667969 189.917969 103.5 188.832031 105.167969 Z M 183 117.75 C 181.917969 120.417969 180.167969 123.5 179.167969 124.582031 C 175.082031 128.917969 174.75 126.082031 178.25 118.582031 C 180.082031 114.75 181.167969 113.417969 182.667969 113.167969 C 183.75 113 184.667969 112.917969 184.75 112.917969 C 184.832031 113 184.082031 115.167969 183 117.75 Z M 183 117.75 "/>
<path style=" stroke:none;fill-rule:nonzero;fill:rgb(80%,0%,0%);fill-opacity:1;" d="M 137.75 110.832031 C 133.082031 112.917969 130 116.082031 130 118.667969 C 130 121.167969 131.582031 122.167969 136.917969 122.917969 C 139.082031 123.25 141.082031 123.917969 141.417969 124.417969 C 142.917969 126.832031 132.667969 131 129.667969 129.167969 C 128.417969 128.417969 128 128.417969 127.417969 129.25 C 126.082031 131.417969 128.417969 132.75 133 132.25 C 143.582031 131.167969 148.667969 123.667969 140.75 120.917969 C 139.25 120.417969 137.332031 120 136.332031 120 C 135.332031 120 134 119.667969 133.332031 119.167969 C 132.332031 118.582031 132.332031 118.167969 133.667969 116.75 C 135.832031 114.417969 142.75 111.082031 143.082031 112.25 C 143.582031 113.667969 147.832031 112.167969 148.167969 110.582031 C 148.582031 108.582031 142.332031 108.75 137.75 110.832031 Z M 137.75 110.832031 "/>
<path style=" stroke:none;fill-rule:nonzero;fill:rgb(80%,0%,0%);fill-opacity:1;" d="M 111.917969 112.332031 C 111.332031 112.667969 109.167969 116.917969 107.082031 121.667969 C 103.417969 130.167969 101.417969 133.332031 99.75 133.332031 C 98.832031 133.332031 99.582031 129.75 101.332031 126.332031 C 102 125 102.5 123.75 102.5 123.667969 C 102.5 123.5 100.917969 123.5 99 123.667969 C 96.25 123.917969 94.917969 124.582031 92.75 126.917969 C 89.582031 130.417969 88.5 133.667969 90 135.417969 C 91.5 137.167969 92.332031 137 95.082031 134.25 C 97.167969 132.082031 97.5 132 97.5 133.417969 C 97.5 135.332031 99.75 136.417969 101 135.167969 C 101.5 134.667969 102.332031 134.5 102.917969 134.667969 C 103.5 134.917969 104.332031 134.082031 104.832031 132.582031 L 105.75 130 L 108.332031 132.582031 C 110.832031 135.082031 110.917969 135.167969 113 133.75 C 114.582031 132.75 115.417969 132.582031 116.25 133.332031 C 117.917969 134.75 121.917969 133.667969 124.167969 131.25 C 126.667969 128.582031 125.75 127.667969 122.832031 129.917969 C 120.5 131.75 117.5 132.25 117.5 130.832031 C 117.5 130.417969 118.417969 129.417969 119.582031 128.667969 C 122.082031 127 122.332031 125.5 120 126.25 C 119.082031 126.5 118.332031 126.417969 118.332031 126 C 118.332031 125.082031 120.832031 123.832031 122 124.082031 C 122.917969 124.25 125 122.5 125 121.582031 C 125 119.917969 120.667969 121 118.167969 123.25 C 116 125.167969 115.667969 125.917969 116.417969 126.832031 C 117.25 127.75 116.832031 128.417969 114.5 130.332031 C 111.75 132.5 111.5 132.582031 110 131.25 C 108.5 129.917969 108.582031 129.75 111.75 126.582031 C 113.5 124.832031 115 123 115 122.582031 C 115 121.25 113.082031 120.417969 112.667969 121.582031 C 112.167969 123.082031 108.25 127.5 107.5 127.5 C 107.082031 127.5 108.417969 123.917969 110.417969 119.582031 C 113.917969 112 114.167969 110.917969 111.917969 112.332031 Z M 99.167969 125.75 C 99.167969 126.167969 97.5 128.332031 95.417969 130.582031 C 92.832031 133.332031 91.75 134.167969 91.667969 133.167969 C 91.667969 132.332031 93 130.167969 94.667969 128.332031 C 97.582031 125.082031 99.167969 124.167969 99.167969 125.75 Z M 99.167969 125.75 "/>
<path style=" stroke:none;fill-rule:nonzero;fill:rgb(80%,0%,0%);fill-opacity:1;" d="M 85.167969 115.582031 C 79.167969 118.5 73.417969 126.5 73.332031 131.832031 C 73.332031 134.082031 75.832031 137.5 77.417969 137.5 C 81.082031 137.5 88.332031 131.75 88.332031 128.832031 C 88.332031 127.417969 87.917969 127.582031 85.25 130.167969 C 81.5 133.75 78.667969 135.332031 77 134.667969 C 73.082031 133.167969 79.5 121.167969 86 117.832031 C 90 115.75 90.667969 117 87.332031 120.25 C 83.75 123.667969 83.5 124.167969 85.75 124.167969 C 87.667969 124.167969 92.5 118.832031 92.5 116.75 C 92.5 114 89.332031 113.5 85.167969 115.582031 Z M 85.167969 115.582031 "/>
<path style=" stroke:none;fill-rule:nonzero;fill:rgb(80%,0%,0%);fill-opacity:1;" d="M 103.332031 166.582031 C 103.332031 168 103.75 169.167969 104.25 169.167969 C 104.667969 169.167969 104.832031 168.75 104.582031 168.332031 C 104.332031 167.832031 104.667969 167.5 105.417969 167.5 C 107.25 167.5 106.667969 164.667969 104.75 164.332031 C 103.667969 164.082031 103.332031 164.582031 103.332031 166.582031 Z M 103.332031 166.582031 "/>
<path style=" stroke:none;fill-rule:nonzero;fill:rgb(80%,0%,0%);fill-opacity:1;" d="M 107.582031 166.832031 C 107.582031 168.332031 107.832031 169.082031 108.082031 168.5 C 108.417969 167.667969 108.75 167.667969 109.667969 168.417969 C 110.417969 169.082031 110.832031 169.082031 110.832031 168.5 C 110.832031 168 110.167969 167.167969 109.417969 166.667969 C 108 165.75 108 165.75 109.417969 166.167969 C 110.417969 166.5 110.832031 166.332031 110.667969 165.667969 C 110.417969 165.082031 109.667969 164.5 108.917969 164.332031 C 107.832031 164.082031 107.5 164.667969 107.582031 166.832031 Z M 107.582031 166.832031 "/>
<path style=" stroke:none;fill-rule:nonzero;fill:rgb(80%,0%,0%);fill-opacity:1;" d="M 112.25 164.75 C 111.917969 165 111.667969 166.167969 111.667969 167.25 C 111.667969 168.667969 112.082031 169.167969 113.582031 169.082031 C 115.332031 169.082031 115.332031 169 113.75 168.332031 C 112.832031 167.917969 112.582031 167.582031 113.167969 167.582031 C 113.75 167.5 114 167.082031 113.667969 166.582031 C 113.417969 166.082031 113.667969 165.332031 114.25 164.917969 C 115.167969 164.332031 115.167969 164.167969 114.082031 164.167969 C 113.332031 164.167969 112.5 164.417969 112.25 164.75 Z M 112.25 164.75 "/>
<path style=" stroke:none;fill-rule:nonzero;fill:rgb(80%,0%,0%);fill-opacity:1;" d="M 115.832031 166.75 C 115.832031 168.832031 116.082031 169.25 116.667969 168.332031 C 117.082031 167.667969 117.5 167.417969 117.5 167.832031 C 117.5 168.25 118.167969 168 118.917969 167.417969 C 120.167969 166.417969 120.25 166.417969 119.75 167.667969 C 119.5 168.5 119.582031 169.167969 120 169.167969 C 120.5 169.167969 120.832031 168.25 120.832031 167.082031 C 120.832031 164.917969 119.667969 164.332031 118.667969 166 C 118.25 166.582031 117.75 166.417969 116.917969 165.417969 C 115.917969 164 115.832031 164.082031 115.832031 166.75 Z M 115.832031 166.75 "/>
<path style=" stroke:none;fill-rule:nonzero;fill:rgb(80%,0%,0%);fill-opacity:1;" d="M 121.832031 166.667969 C 121.832031 168.25 122 168.917969 122.25 168.082031 C 122.417969 167.332031 122.417969 166 122.25 165.167969 C 122 164.417969 121.832031 165.082031 121.832031 166.667969 Z M 121.832031 166.667969 "/>
<path style=" stroke:none;fill-rule:nonzero;fill:rgb(80%,0%,0%);fill-opacity:1;" d="M 123.917969 164.832031 C 122.832031 166.417969 124.082031 169.332031 125.667969 169 C 126.582031 168.832031 127.167969 167.832031 127.25 166.25 C 127.332031 164.832031 127.25 164.332031 127 165 C 125.667969 168.582031 125.582031 168.667969 125.082031 166.25 C 124.75 164.582031 124.332031 164.082031 123.917969 164.832031 Z M 123.917969 164.832031 "/>
<path style=" stroke:none;fill-rule:nonzero;fill:rgb(80%,0%,0%);fill-opacity:1;" d="M 128.417969 166.667969 C 128.417969 169.417969 128.5 169.5 129.25 167.582031 C 129.75 166.25 129.75 165.25 129.167969 164.667969 C 128.582031 164.082031 128.332031 164.75 128.417969 166.667969 Z M 128.417969 166.667969 "/>
<path style=" stroke:none;fill-rule:nonzero;fill:rgb(80%,0%,0%);fill-opacity:1;" d="M 132.167969 164.917969 C 131.832031 165.332031 132 166.582031 132.417969 167.667969 C 133.167969 169.417969 133.25 169.417969 133.25 166.832031 C 133.332031 164.167969 133 163.582031 132.167969 164.917969 Z M 132.167969 164.917969 "/>
<path style=" stroke:none;fill-rule:nonzero;fill:rgb(80%,0%,0%);fill-opacity:1;" d="M 135.917969 165.75 C 135 167.417969 135.75 168.417969 138.332031 169.332031 C 140 169.917969 140.5 165.832031 139 164.832031 C 137.417969 163.832031 136.832031 164 135.917969 165.75 Z M 139 166.832031 C 138.5 168.332031 136.667969 168.582031 136.667969 167.167969 C 136.667969 166.417969 137.25 165.832031 138 165.832031 C 138.75 165.832031 139.167969 166.25 139 166.832031 Z M 139 166.832031 "/>
<path style=" stroke:none;fill-rule:nonzero;fill:rgb(80%,0%,0%);fill-opacity:1;" d="M 141.082031 166.25 C 141.167969 167.832031 141.75 168.832031 142.667969 169 C 144.332031 169.332031 145.582031 166.082031 144.25 164.75 C 143.582031 164.082031 143.332031 164.5 143.332031 166.25 C 143.332031 168.832031 142.167969 168.332031 141.417969 165.417969 C 141.167969 164.417969 141 164.75 141.082031 166.25 Z M 141.082031 166.25 "/>
<path style=" stroke:none;fill-rule:nonzero;fill:rgb(80%,0%,0%);fill-opacity:1;" d="M 146.917969 165.667969 C 147.167969 166.667969 147.082031 167.332031 146.667969 167.082031 C 146.332031 166.832031 145.832031 167.167969 145.582031 167.832031 C 145.25 168.667969 145.75 168.917969 147.167969 168.832031 C 149.5 168.75 149.667969 167.667969 147.832031 165.332031 C 146.582031 163.75 146.582031 163.832031 146.917969 165.667969 Z M 146.917969 165.667969 "/>
<path style=" stroke:none;fill-rule:nonzero;fill:rgb(80%,0%,0%);fill-opacity:1;" d="M 150.082031 166.417969 C 150 168.5 150.332031 169.167969 151.5 169.167969 C 152.417969 169.167969 152.582031 168.917969 152 168.5 C 151.417969 168.167969 150.832031 167 150.582031 165.832031 C 150.25 164.082031 150.25 164.167969 150.082031 166.417969 Z M 150.082031 166.417969 "/>
<path style=" stroke:none;fill-rule:nonzero;fill:rgb(80%,0%,0%);fill-opacity:1;" d="M 156.167969 165.5 C 156.417969 166.25 156.667969 167.417969 156.75 168.167969 C 156.832031 169.082031 157 168.832031 157.332031 167.667969 C 158.082031 165.167969 159.332031 165.082031 160.5 167.417969 C 161.332031 169.082031 161.5 169.167969 162 167.75 C 162.25 166.917969 162.75 165.667969 163.082031 165 C 163.5 163.917969 163.417969 163.917969 162.332031 164.832031 C 161.417969 165.582031 160.832031 165.667969 160.417969 165 C 160.167969 164.582031 158.917969 164.167969 157.75 164.167969 C 156.167969 164.167969 155.75 164.5 156.167969 165.5 Z M 156.167969 165.5 "/>
<path style=" stroke:none;fill-rule:nonzero;fill:rgb(80%,0%,0%);fill-opacity:1;" d="M 153.332031 167.082031 C 153.332031 168.25 153.75 169.167969 154.167969 169.167969 C 154.667969 169.167969 155 168.25 155 167.082031 C 155 165.917969 154.667969 165 154.167969 165 C 153.75 165 153.332031 165.917969 153.332031 167.082031 Z M 153.332031 167.082031 "/>
<path style=" stroke:none;fill-rule:nonzero;fill:rgb(80%,0%,0%);fill-opacity:1;" d="M 130 167.5 C 130 167.917969 130.417969 168.332031 130.832031 168.332031 C 131.332031 168.332031 131.667969 167.917969 131.667969 167.5 C 131.667969 167 131.332031 166.667969 130.832031 166.667969 C 130.417969 166.667969 130 167 130 167.5 Z M 130 167.5 "/>
</g>
</svg>
