<?xml version="1.0" standalone="no"?>
<!DOCTYPE svg PUBLIC "-//W3C//DTD SVG 20010904//EN"
 "http://www.w3.org/TR/2001/REC-SVG-20010904/DTD/svg10.dtd">
<svg version="1.0" xmlns="http://www.w3.org/2000/svg"
 width="500.000000pt" height="462.000000pt" viewBox="0 0 500.000000 462.000000"
 preserveAspectRatio="xMidYMid meet">

<g transform="translate(0.000000,462.000000) scale(0.100000,-0.100000)"
fill="#000000" stroke="none">
<path d="M2365 4454 c-390 -31 -735 -147 -1045 -351 -897 -592 -1215 -1759
-740 -2718 114 -231 236 -400 416 -577 121 -119 198 -181 334 -270 573 -375
1294 -451 1936 -203 686 265 1187 867 1330 1600 26 129 28 159 28 385 1 274
-11 365 -78 597 -145 503 -484 948 -931 1223 -89 55 -308 160 -403 194 -114
41 -289 83 -409 100 -113 16 -352 27 -438 20z m135 -597 c41 -106 101 -153
245 -187 224 -54 371 -179 351 -298 -5 -33 -1 -41 39 -82 86 -88 117 -196 80
-283 -19 -46 -19 -47 5 -47 34 0 36 -29 6 -79 -85 -144 -144 -293 -172 -439
-20 -107 -49 -159 -112 -205 -112 -83 -247 -111 -486 -104 -140 4 -184 9 -241
27 -95 30 -139 54 -192 103 -58 53 -66 71 -93 197 -27 130 -76 258 -141 373
-28 49 -49 96 -47 105 2 10 15 18 31 20 15 2 27 5 27 8 0 3 -9 33 -21 67 -16
48 -20 78 -17 137 6 101 36 167 103 228 29 26 55 60 59 77 11 42 72 130 115
164 43 34 128 81 147 81 7 0 26 19 43 43 35 52 82 89 153 123 75 35 96 30 118
-29z m-1560 -1927 c0 -5 43 -30 95 -56 75 -37 106 -46 146 -46 32 0 52 -5 55
-13 3 -7 -8 -52 -25 -99 -30 -84 -30 -86 -9 -71 29 20 87 19 110 -2 24 -22 23
-56 -7 -143 -14 -40 -25 -75 -25 -77 0 -2 9 -3 21 -3 32 0 17 -25 -18 -28 -18
-2 -35 3 -43 13 -12 14 -9 29 16 101 22 65 26 88 18 102 -39 61 -134 -29 -134
-128 0 -22 -2 -40 -5 -40 -2 0 -23 7 -45 16 -39 16 -53 34 -26 34 16 0 14 -5
72 163 45 128 50 186 10 111 l-21 -39 -3 32 c-3 32 -32 63 -59 63 -8 0 -40
-57 -73 -127 -57 -119 -59 -127 -43 -145 28 -31 5 -33 -53 -5 l-56 28 27 21
c25 19 135 227 135 254 0 6 -12 16 -27 23 -23 11 -30 9 -55 -9 -34 -25 -37
-10 -11 45 16 33 33 46 33 25z m2914 -165 c19 -44 36 -72 36 -62 0 30 32 75
61 87 42 18 64 -1 109 -97 31 -64 44 -83 53 -74 28 28 38 -1 10 -31 -32 -36
-51 -23 -95 67 -44 89 -57 101 -89 85 -42 -23 -32 -130 17 -181 13 -14 24 -28
24 -31 0 -9 -80 -41 -87 -35 -3 4 -1 13 6 20 9 11 -3 44 -53 153 -54 119 -67
139 -85 137 -28 -4 -26 12 5 44 32 32 39 26 88 -82z m-296 -27 c17 -17 15 -48
-4 -55 -8 -3 -22 1 -31 9 -12 12 -13 20 -4 37 13 24 22 26 39 9z m151 -19 c7
-22 15 -29 26 -25 8 3 22 9 30 12 10 4 15 0 15 -14 0 -13 -9 -22 -26 -26 -19
-5 -24 -11 -19 -24 4 -9 18 -47 32 -84 25 -67 38 -79 61 -56 6 6 14 9 18 6 9
-9 -14 -46 -36 -58 -35 -19 -56 4 -90 100 -30 84 -34 89 -56 84 -29 -7 -31 7
-4 31 12 11 20 31 20 52 0 42 15 43 29 2z m-109 -102 c0 -6 12 -49 26 -95 24
-79 27 -84 50 -78 13 4 24 2 24 -2 0 -18 -39 -43 -62 -40 -20 3 -27 17 -53 96
-23 70 -34 92 -47 92 -26 0 -22 15 8 39 21 16 30 18 40 10 8 -6 14 -16 14 -22z
m-1610 -7 c21 -11 42 -29 45 -41 11 -34 -3 -68 -31 -75 -30 -8 -43 1 -26 18
16 16 15 53 -1 66 -45 38 -113 16 -143 -45 -42 -88 -23 -202 39 -231 33 -16
89 -9 107 13 16 19 30 19 30 1 0 -29 -50 -56 -104 -56 -94 0 -156 67 -155 170
0 150 120 241 239 180z m425 -88 c0 -87 6 -111 19 -77 3 8 21 23 40 32 29 13
40 14 61 5 51 -24 51 -98 0 -126 -11 -6 -22 -12 -24 -13 -2 -2 4 -21 14 -44
16 -34 23 -40 42 -36 34 6 38 -9 8 -29 -37 -24 -65 -7 -101 60 -16 31 -32 56
-36 56 -5 0 -8 5 -8 10 0 6 18 10 40 10 33 0 42 4 52 25 8 19 8 28 -2 40 -18
22 -43 18 -70 -10 -19 -20 -25 -40 -28 -91 -3 -41 0 -70 7 -77 21 -21 11 -27
-39 -27 -49 0 -66 12 -35 24 13 5 15 29 13 163 -2 117 -6 158 -15 159 -27 3
-27 5 -4 25 13 11 34 19 45 17 20 -3 21 -9 21 -96z m-832 37 c52 -64 -33 -154
-110 -117 -15 7 -29 21 -31 31 -3 16 -1 17 16 8 31 -16 57 -13 77 9 22 24 13
66 -16 75 -67 22 -131 -123 -78 -176 18 -18 30 -20 70 -17 61 6 73 -7 24 -28
-59 -24 -130 -1 -153 52 -35 75 8 172 84 193 40 11 95 -4 117 -30z m1864 19
c13 -14 28 -55 39 -106 17 -80 19 -83 42 -77 32 8 25 -15 -12 -35 -25 -14 -28
-13 -44 6 -10 11 -24 52 -31 90 -15 76 -25 94 -52 94 -47 0 -66 -112 -30 -182
18 -36 18 -36 -3 -42 -39 -11 -43 -6 -60 77 -21 98 -30 117 -56 117 -49 0 -69
-123 -30 -187 21 -36 23 -34 -47 -48 -21 -4 -33 -3 -33 4 0 6 5 11 10 11 12 0
13 43 1 90 -5 19 -12 47 -15 63 -4 18 -13 27 -26 27 -28 0 -25 15 9 39 37 27
39 26 52 -6 10 -26 12 -27 19 -8 10 25 38 51 67 59 17 5 29 1 48 -18 30 -30
35 -32 35 -12 0 19 57 66 79 66 10 0 27 -10 38 -22z m-419 -74 c24 -17 29 -43
10 -62 -20 -20 -36 -14 -40 16 -2 22 -8 27 -32 27 -36 0 -56 -26 -37 -49 7 -9
32 -21 55 -27 66 -17 86 -35 86 -74 0 -46 -37 -75 -98 -75 -66 0 -105 43 -70
78 20 20 38 14 38 -13 0 -18 8 -29 25 -37 22 -10 29 -9 47 9 30 30 18 47 -52
72 -66 24 -87 50 -76 95 12 48 98 73 144 40z m-750 -29 c9 -3 10 -10 3 -23 -5
-10 -11 -56 -12 -103 -2 -81 -1 -84 21 -81 28 3 22 -19 -10 -35 -27 -13 -60
-1 -60 22 0 19 -14 19 -29 1 -30 -36 -97 -26 -127 20 -33 49 -16 155 30 194
32 26 121 29 184 5z m535 -6 c25 -31 22 -75 -8 -104 -18 -19 -35 -25 -70 -25
-33 0 -45 4 -45 15 0 10 10 15 33 15 40 0 57 15 57 51 0 35 -23 53 -56 45 -34
-9 -58 -65 -49 -118 13 -72 61 -96 126 -62 41 21 51 8 16 -21 -37 -33 -87 -41
-126 -21 -91 48 -92 192 -1 239 43 22 98 16 123 -14z"/>
<path d="M2357 3800 c-93 -59 -145 -169 -132 -285 21 -197 181 -455 383 -618
l73 -58 61 30 c69 35 122 39 188 16 24 -8 44 -14 45 -13 17 21 35 76 35 108 0
81 -34 117 -170 185 -223 111 -335 229 -395 418 -19 58 -25 100 -25 163 0 46
-4 84 -8 84 -4 0 -29 -13 -55 -30z"/>
<path d="M2500 3726 c0 -4 9 -24 20 -45 31 -62 88 -102 221 -156 68 -27 161
-71 207 -98 46 -26 86 -46 89 -44 12 13 -15 65 -53 103 -55 55 -122 89 -240
119 -114 30 -171 56 -213 97 -17 17 -31 27 -31 24z"/>
<path d="M2117 3619 c-89 -59 -146 -147 -147 -225 0 -126 106 -312 303 -529
52 -57 55 -59 73 -43 32 28 107 58 147 58 l38 0 -71 74 c-128 131 -218 273
-271 426 -17 50 -22 89 -23 167 -1 57 -1 103 -2 103 0 0 -21 -14 -47 -31z"/>
<path d="M2510 3575 c0 -22 68 -132 110 -178 70 -76 129 -118 258 -182 79 -39
120 -66 145 -95 38 -44 64 -124 52 -159 -14 -46 39 -12 67 42 63 122 -13 248
-220 366 -80 45 -291 141 -312 141 -5 0 -29 16 -54 35 -25 19 -46 33 -46 30z"/>
<path d="M1887 3342 c-62 -68 -82 -222 -40 -312 24 -52 49 -79 119 -125 50
-33 53 -33 90 -20 22 8 54 14 72 15 l32 0 -46 57 c-95 117 -170 253 -194 351
-6 28 -13 52 -14 52 -2 0 -10 -8 -19 -18z"/>
<path d="M1831 2894 c2 -5 19 -37 37 -71 54 -105 93 -213 122 -342 26 -113 31
-127 65 -160 l37 -36 -6 70 c-17 175 -74 409 -113 463 -23 31 -71 61 -122 77
-13 4 -22 3 -20 -1z"/>
<path d="M3093 2876 c-28 -14 -58 -35 -67 -48 -34 -52 -118 -476 -104 -520 10
-29 52 61 69 144 30 149 62 234 167 441 6 12 -11 8 -65 -17z"/>
<path d="M2083 2825 l-32 -14 19 -57 c33 -95 71 -293 77 -399 3 -55 11 -103
17 -108 12 -8 94 -32 144 -42 l34 -7 -7 123 c-9 187 -25 360 -35 399 -11 43
-51 83 -102 104 -45 19 -73 20 -115 1z"/>
<path d="M2785 2821 c-22 -10 -51 -31 -65 -45 l-25 -28 -4 -270 -3 -271 43 7
c24 4 62 15 86 26 39 17 43 22 43 54 0 95 44 347 86 492 5 18 -1 24 -35 38
-53 20 -76 20 -126 -3z"/>
<path d="M2445 2809 c-17 -4 -42 -21 -56 -36 l-26 -28 13 -120 c7 -66 16 -191
20 -278 l7 -159 108 4 c59 1 110 5 113 9 3 3 6 126 6 273 1 301 4 291 -75 327
-44 20 -64 22 -110 8z"/>
<path d="M2127 1442 c-39 -43 -33 -145 9 -164 20 -10 29 -8 52 9 23 17 28 30
35 88 5 51 4 71 -5 77 -23 14 -74 9 -91 -10z"/>
</g>
</svg>
