<?xml version="1.0" encoding="UTF-8"?>
<svg xmlns="http://www.w3.org/2000/svg" xmlns:xlink="http://www.w3.org/1999/xlink" width="100pt" height="100pt" viewBox="0 0 100 100" version="1.1">
<g id="surface1">
<path style=" stroke:none;fill-rule:nonzero;fill:rgb(80%,0%,0%);fill-opacity:1;" d="M 50.035156 16.367188 L 48.234375 17.398438 L 46.199219 16.933594 C 43.734375 16.332031 43.066406 16.535156 40.933594 18.535156 C 39.464844 19.898438 39.234375 20 37.566406 20 C 35.367188 20 34.265625 20.734375 33.234375 22.964844 C 32.566406 24.332031 32.300781 24.566406 30.667969 25.101562 C 28.300781 25.832031 27.632812 26.566406 27.167969 28.898438 C 26.832031 30.632812 26.632812 30.964844 25.167969 32.066406 C 22.964844 33.734375 22.632812 34.398438 22.898438 36.867188 C 23.066406 38.765625 23 39.035156 22.167969 40.132812 C 21.332031 41.234375 21.234375 41.566406 21.332031 43.765625 C 21.433594 47.132812 21.433594 48.167969 21.367188 51.066406 C 21.265625 53.398438 21.367188 53.734375 22.167969 54.832031 C 23 55.898438 23.066406 56.167969 22.867188 57.964844 C 22.566406 60.464844 23 61.398438 25.035156 62.667969 C 26.800781 63.800781 26.832031 63.898438 27.199219 66.199219 C 27.5 68.167969 28.433594 69.167969 30.464844 69.699219 C 32.132812 70.101562 32.464844 70.398438 33.667969 72.632812 C 34.667969 74.464844 35.601562 75 37.898438 75 C 39.566406 75 39.765625 75.101562 41.332031 76.667969 C 43.167969 78.5 43.800781 78.667969 46.535156 77.933594 C 47.964844 77.535156 48.167969 77.566406 49.699219 78.433594 C 51.765625 79.566406 53.300781 79.601562 55.234375 78.433594 C 56.667969 77.601562 56.832031 77.566406 58.632812 77.933594 C 61.632812 78.566406 61.933594 78.5 63.699219 76.667969 C 65.234375 75.066406 65.398438 75 67.066406 75 C 69.398438 75 70.332031 74.464844 71.332031 72.632812 C 72.535156 70.398438 72.867188 70.101562 74.535156 69.699219 C 76.5 69.199219 77.535156 68.132812 77.832031 66.300781 C 78.199219 63.933594 78.300781 63.765625 79.964844 62.699219 C 82 61.398438 82.433594 60.464844 82.132812 57.964844 C 81.933594 56.132812 81.964844 55.964844 83 54.667969 C 84.066406 53.332031 84.066406 53.265625 83.867188 50.898438 C 83.601562 48.066406 83.601562 46.933594 83.867188 43.933594 C 84.035156 41.800781 84 41.632812 82.964844 40.199219 C 81.964844 38.800781 81.933594 38.566406 82.101562 36.765625 C 82.367188 34.398438 82.035156 33.734375 79.832031 32.066406 C 78.367188 30.964844 78.167969 30.632812 77.832031 28.898438 C 77.367188 26.566406 76.699219 25.832031 74.332031 25.101562 C 72.699219 24.566406 72.433594 24.332031 71.765625 22.964844 C 70.734375 20.734375 69.632812 20 67.433594 20 C 65.765625 20 65.535156 19.898438 64.066406 18.535156 C 61.898438 16.5 61.265625 16.300781 58.867188 16.933594 L 56.867188 17.433594 L 54.964844 16.367188 C 53.933594 15.800781 52.800781 15.332031 52.464844 15.332031 C 52.101562 15.332031 51.035156 15.800781 50.035156 16.367188 Z M 54.566406 17.699219 C 55.898438 18.464844 56.632812 18.699219 57.433594 18.566406 C 58.035156 18.464844 59.132812 18.265625 59.933594 18.132812 C 61.332031 17.898438 61.433594 17.964844 63 19.5 C 64.433594 20.933594 64.800781 21.101562 66.398438 21.234375 C 69.398438 21.464844 69.601562 21.566406 70.5 23.300781 C 71.601562 25.5 72.066406 25.898438 74.167969 26.535156 C 76.132812 27.101562 75.964844 26.867188 76.898438 30.667969 C 77.101562 31.535156 77.667969 32.199219 79.101562 33.265625 L 81.035156 34.734375 L 80.800781 36.535156 C 80.535156 38.832031 80.734375 39.566406 82.167969 41.367188 C 82.800781 42.167969 83.332031 43 83.332031 43.199219 C 83.332031 43.433594 83.035156 44.234375 82.667969 45.035156 C 81.832031 46.898438 81.832031 48 82.699219 50 C 83.464844 51.800781 83.398438 52.132812 81.566406 54.398438 C 80.632812 55.601562 80.566406 55.765625 80.765625 57.867188 C 80.964844 60 80.933594 60.132812 80.066406 60.867188 C 79.566406 61.300781 78.667969 62.066406 78.066406 62.566406 C 77.234375 63.300781 76.933594 63.898438 76.667969 65.332031 C 76.464844 66.332031 76.167969 67.300781 76 67.5 C 75.800781 67.667969 74.734375 68.199219 73.632812 68.667969 C 71.832031 69.398438 71.5 69.699219 70.601562 71.332031 C 70.066406 72.332031 69.535156 73.234375 69.464844 73.332031 C 69.367188 73.398438 68.234375 73.566406 66.964844 73.699219 C 64.734375 73.898438 64.535156 73.964844 63 75.5 L 61.367188 77.101562 L 58.964844 76.667969 L 56.566406 76.199219 L 54.535156 77.332031 L 52.535156 78.433594 L 50.464844 77.332031 L 48.433594 76.199219 L 46.035156 76.667969 L 43.632812 77.101562 L 42 75.5 C 40.464844 73.964844 40.265625 73.898438 38.035156 73.699219 C 36.765625 73.566406 35.601562 73.367188 35.464844 73.234375 C 35.332031 73.101562 34.800781 72.199219 34.332031 71.234375 C 33.535156 69.667969 33.234375 69.398438 31.398438 68.667969 C 30.265625 68.199219 29.199219 67.667969 29 67.5 C 28.832031 67.300781 28.535156 66.332031 28.332031 65.332031 C 28.066406 63.898438 27.765625 63.300781 26.933594 62.566406 C 26.332031 62.066406 25.433594 61.300781 24.933594 60.867188 C 24.066406 60.132812 24.035156 59.964844 24.199219 57.964844 C 24.367188 56.035156 24.300781 55.734375 23.535156 54.667969 C 21.601562 52 21.535156 51.765625 22.300781 50 C 23.167969 47.964844 23.167969 47.035156 22.300781 45 C 21.535156 43.234375 21.601562 43 23.535156 40.332031 C 24.332031 39.265625 24.367188 38.964844 24.199219 36.933594 L 24 34.699219 L 25.898438 33.265625 C 27.332031 32.199219 27.898438 31.5 28.101562 30.667969 C 29.035156 26.867188 28.867188 27.066406 30.765625 26.535156 C 32.699219 25.964844 33.566406 25.199219 34.632812 23.101562 C 35.398438 21.601562 35.632812 21.464844 38.601562 21.234375 C 40.199219 21.101562 40.566406 20.933594 42 19.5 C 43.5 18.035156 43.699219 17.933594 44.898438 18.132812 C 48.765625 18.734375 48.765625 18.734375 50.5 17.699219 C 51.433594 17.132812 52.300781 16.667969 52.464844 16.667969 C 52.632812 16.667969 53.566406 17.132812 54.566406 17.699219 Z M 54.566406 17.699219 "/>
<path style=" stroke:none;fill-rule:nonzero;fill:rgb(80%,0%,0%);fill-opacity:1;" d="M 51.066406 22.535156 C 51 23.832031 50.433594 24.964844 49.066406 26.332031 C 48.332031 27.066406 48.265625 27.367188 48.433594 29 C 48.566406 30.167969 48.832031 30.964844 49.199219 31.234375 C 49.964844 31.800781 53.367188 31.800781 54.066406 31.234375 C 55.199219 30.332031 55.800781 26.5 54.867188 26.132812 C 54.601562 26.035156 54.265625 25.5 54.167969 24.964844 C 54.035156 24.433594 53.800781 23.898438 53.632812 23.800781 C 53.433594 23.699219 53.167969 23.234375 53 22.800781 C 52.800781 22.300781 52.398438 22 52 22 C 51.601562 22 51.398438 21.832031 51.5 21.667969 C 51.601562 21.464844 51.566406 21.332031 51.398438 21.332031 C 51.234375 21.332031 51.101562 21.867188 51.066406 22.535156 Z M 52.035156 24.035156 C 51.601562 24.398438 51.167969 24.601562 51.066406 24.535156 C 50.964844 24.433594 51.265625 24.066406 51.699219 23.699219 C 52.132812 23.332031 52.566406 23.132812 52.667969 23.234375 C 52.765625 23.300781 52.464844 23.667969 52.035156 24.035156 Z M 52.800781 25.234375 C 52.464844 25.464844 51.734375 25.667969 51.199219 25.667969 C 50.234375 25.632812 50.199219 25.632812 50.800781 25.167969 C 51.167969 24.898438 51.632812 24.667969 51.867188 24.667969 C 52.066406 24.667969 52.464844 24.433594 52.699219 24.101562 C 53.132812 23.601562 53.167969 23.601562 53.300781 24.167969 C 53.367188 24.5 53.132812 25 52.800781 25.234375 Z M 53.464844 26.234375 C 52.765625 26.734375 50.464844 26.832031 50.167969 26.332031 C 50.035156 26.132812 50.464844 26 51.234375 26 C 51.964844 26 52.832031 25.800781 53.199219 25.535156 C 53.632812 25.199219 53.867188 25.167969 53.964844 25.398438 C 54.035156 25.601562 53.832031 25.964844 53.464844 26.234375 Z M 54.867188 26.734375 C 55.5 27.734375 52.5 28.332031 49.699219 27.800781 C 48.898438 27.632812 48.734375 27.464844 49 27.167969 C 49.234375 26.867188 50 26.800781 51.464844 26.898438 C 52.832031 27.035156 53.667969 26.964844 53.800781 26.699219 C 54.101562 26.234375 54.566406 26.234375 54.867188 26.734375 Z M 49.300781 30 L 49.265625 31.167969 L 49 30.167969 C 48.867188 29.601562 48.734375 28.867188 48.699219 28.5 C 48.667969 27.964844 48.734375 27.933594 49 28.332031 C 49.167969 28.601562 49.300781 29.367188 49.300781 30 Z M 54.800781 28.898438 C 54.535156 30 54.035156 31 54 30.464844 C 54 29.566406 54.433594 28 54.699219 28 C 54.867188 28 54.898438 28.398438 54.800781 28.898438 Z M 50 29.667969 C 50 30.398438 49.933594 31 49.867188 31 C 49.800781 31 49.667969 30.398438 49.601562 29.667969 C 49.535156 28.933594 49.601562 28.332031 49.734375 28.332031 C 49.898438 28.332031 50 28.933594 50 29.667969 Z M 51.265625 29.898438 L 51.234375 31.5 L 51.035156 30 L 50.867188 28.5 L 50.667969 30 L 50.433594 31.5 L 50.398438 29.898438 C 50.332031 28.699219 50.464844 28.332031 50.832031 28.332031 C 51.199219 28.332031 51.332031 28.699219 51.265625 29.898438 Z M 53.765625 29.566406 C 53.5 31.300781 53.332031 31.367188 53.332031 29.734375 C 53.332031 28.964844 53.464844 28.332031 53.632812 28.332031 C 53.832031 28.332031 53.867188 28.898438 53.765625 29.566406 Z M 53 29.566406 C 53 30.101562 52.832031 30.734375 52.632812 31 C 52.367188 31.367188 52.332031 31.199219 52.398438 30.234375 C 52.464844 29.566406 52.433594 29 52.300781 29 C 52.167969 29 51.964844 29.566406 51.898438 30.234375 L 51.765625 31.5 L 51.734375 30.066406 C 51.667969 28.867188 51.765625 28.667969 52.332031 28.667969 C 52.832031 28.667969 53 28.898438 53 29.566406 Z M 53 29.566406 "/>
<path style=" stroke:none;fill-rule:nonzero;fill:rgb(80%,0%,0%);fill-opacity:1;" d="M 53.867188 34.898438 C 52.601562 37.5 50.601562 42.667969 50.765625 43.101562 C 50.832031 43.332031 51.699219 42.398438 52.667969 41.066406 C 53.632812 39.734375 54.5 38.699219 54.566406 38.800781 C 54.632812 38.867188 54.367188 39.601562 53.933594 40.464844 C 53.265625 41.898438 53.234375 42.035156 53.734375 42.566406 C 54.265625 43.066406 54.367188 43.066406 55.167969 42.535156 C 55.832031 42.101562 56.167969 42.035156 56.433594 42.300781 C 56.632812 42.5 57.101562 42.667969 57.5 42.667969 C 58.433594 42.667969 60.332031 41.433594 60.332031 40.832031 C 60.332031 40.167969 60.035156 40.199219 59.199219 40.964844 C 58.800781 41.332031 58.199219 41.667969 57.867188 41.734375 C 56.832031 41.898438 56.898438 41.101562 57.964844 40.464844 C 59.234375 39.699219 59.300781 39.199219 58.101562 39.5 C 57.199219 39.699219 57.199219 39.699219 57.800781 39.035156 C 58.199219 38.601562 58.667969 38.398438 59.066406 38.535156 C 59.433594 38.632812 59.734375 38.5 59.867188 38.167969 C 60.167969 37.433594 59.832031 37.199219 58.832031 37.464844 C 57.5 37.800781 56.566406 38.898438 56.800781 39.867188 C 56.933594 40.367188 56.867188 40.667969 56.601562 40.667969 C 56.398438 40.667969 55.867188 41 55.433594 41.398438 C 55 41.800781 54.601562 42.035156 54.5 41.964844 C 54.433594 41.867188 54.667969 40.933594 55.066406 39.898438 C 55.433594 38.832031 55.667969 37.898438 55.566406 37.800781 C 55.199219 37.398438 54.167969 38.035156 53.5 39 C 52.167969 41.035156 52.367188 39.898438 53.898438 36.898438 C 54.765625 35.234375 55.535156 33.734375 55.601562 33.566406 C 55.667969 33.433594 55.5 33.332031 55.199219 33.332031 C 54.898438 33.332031 54.332031 34.035156 53.867188 34.898438 Z M 53.867188 34.898438 "/>
<path style=" stroke:none;fill-rule:nonzero;fill:rgb(80%,0%,0%);fill-opacity:1;" d="M 52.332031 33.933594 C 52.066406 34 51.601562 34.300781 51.300781 34.566406 C 50.566406 35.199219 46.667969 35.867188 46.367188 35.398438 C 46.035156 34.832031 45.199219 35.535156 45.464844 36.167969 C 45.632812 36.632812 45.964844 36.734375 47.265625 36.566406 C 48.132812 36.5 49.132812 36.300781 49.464844 36.132812 C 50.101562 35.898438 50.101562 35.898438 49.433594 37.035156 C 49.066406 37.667969 48.332031 38.933594 47.832031 39.898438 C 47.332031 40.867188 46.800781 41.566406 46.632812 41.464844 C 46.332031 41.300781 45.667969 42.398438 45.667969 43.132812 C 45.667969 43.933594 46.765625 43.765625 47.332031 42.898438 C 47.601562 42.5 48.566406 40.734375 49.5 39 C 50.832031 36.5 51.398438 35.734375 52.265625 35.367188 C 53.667969 34.734375 53.734375 33.464844 52.332031 33.933594 Z M 52.332031 33.933594 "/>
<path style=" stroke:none;fill-rule:nonzero;fill:rgb(80%,0%,0%);fill-opacity:1;" d="M 75.535156 42.066406 C 75.300781 42.5 74.867188 43.199219 74.632812 43.667969 C 74.367188 44.132812 73.867188 44.5 73.433594 44.535156 C 72.832031 44.535156 72.765625 44.433594 73.035156 43.964844 C 73.535156 43.035156 72.765625 42.867188 72.167969 43.800781 C 71.601562 44.667969 70.101562 45.132812 69.898438 44.535156 C 69.800781 44.300781 69.535156 44.367188 69.132812 44.734375 C 68.398438 45.433594 68.667969 45.765625 70 45.765625 C 70.566406 45.765625 71 45.800781 71 45.832031 C 71 46.433594 69.199219 49.699219 68.535156 50.300781 C 67.265625 51.5 67.132812 50.933594 68.132812 48.832031 C 68.601562 47.800781 68.933594 46.800781 68.800781 46.632812 C 68.5 46.132812 67.332031 47.300781 67.332031 48.066406 C 67.332031 48.832031 65.167969 51.265625 64.800781 50.898438 C 64.667969 50.765625 64.933594 49.832031 65.433594 48.800781 C 66.5 46.601562 66.5 46.667969 65.632812 46.667969 C 65.234375 46.667969 64.367188 47.234375 63.734375 47.898438 C 63.035156 48.667969 62.699219 48.867188 62.964844 48.398438 C 63.367188 47.667969 63.234375 47 62.667969 47 C 62.5 47 61.898438 47.398438 61.265625 47.898438 C 60.667969 48.398438 60.367188 48.566406 60.601562 48.332031 C 61.101562 47.765625 61.132812 46.867188 60.632812 47.199219 C 60.199219 47.464844 58.332031 51.300781 58.332031 51.898438 C 58.332031 52.765625 58.964844 52.300781 59.964844 50.699219 C 60.964844 49.167969 62.332031 47.667969 62.332031 48.101562 C 62.332031 48.234375 61.964844 49.101562 61.5 50.066406 C 60.234375 52.699219 61 52.632812 62.964844 50 C 64.765625 47.566406 65.667969 47.035156 64.332031 49.132812 C 63.933594 49.800781 63.667969 50.667969 63.734375 51.066406 C 63.867188 52.035156 65.035156 52.234375 65.832031 51.433594 C 66.265625 51 66.5 50.964844 66.601562 51.265625 C 66.765625 51.800781 68.167969 51.765625 68.734375 51.199219 C 69.132812 50.832031 69.300781 50.832031 69.832031 51.199219 C 70.167969 51.433594 70.566406 51.566406 70.765625 51.433594 C 70.933594 51.332031 71.367188 51.234375 71.699219 51.199219 C 72.035156 51.167969 73 50.234375 73.832031 49.066406 C 75.464844 46.832031 76.035156 46.5 75.132812 48.265625 C 74.5 49.566406 74.632812 50.800781 75.433594 50.933594 C 76.132812 51.066406 77.667969 49.800781 77.667969 49.101562 C 77.667969 48.464844 77.234375 48.566406 76.734375 49.332031 C 76.5 49.699219 76.101562 50 75.867188 50 C 75.464844 50 75.535156 49.566406 76.167969 48 C 76.632812 46.832031 76.832031 45.933594 76.632812 45.800781 C 76.199219 45.535156 74.765625 46.5 74.332031 47.367188 C 74.101562 47.734375 73.867188 48 73.800781 47.898438 C 73.699219 47.800781 74.300781 46.367188 75.132812 44.699219 C 75.964844 43.035156 76.667969 41.601562 76.667969 41.5 C 76.667969 41.066406 75.964844 41.398438 75.535156 42.066406 Z M 73.199219 47.101562 C 72.765625 48.167969 72.066406 49.398438 71.667969 49.832031 C 70.035156 51.566406 69.898438 50.433594 71.300781 47.433594 C 72.035156 45.898438 72.464844 45.367188 73.066406 45.265625 C 73.5 45.199219 73.867188 45.167969 73.898438 45.167969 C 73.933594 45.199219 73.632812 46.066406 73.199219 47.101562 Z M 73.199219 47.101562 "/>
<path style=" stroke:none;fill-rule:nonzero;fill:rgb(80%,0%,0%);fill-opacity:1;" d="M 55.101562 44.332031 C 53.234375 45.167969 52 46.433594 52 47.464844 C 52 48.464844 52.632812 48.867188 54.765625 49.167969 C 55.632812 49.300781 56.433594 49.566406 56.566406 49.765625 C 57.167969 50.734375 53.066406 52.398438 51.867188 51.667969 C 51.367188 51.367188 51.199219 51.367188 50.964844 51.699219 C 50.433594 52.566406 51.367188 53.101562 53.199219 52.898438 C 57.433594 52.464844 59.464844 49.464844 56.300781 48.367188 C 55.699219 48.167969 54.933594 48 54.535156 48 C 54.132812 48 53.601562 47.867188 53.332031 47.667969 C 52.933594 47.433594 52.933594 47.265625 53.464844 46.699219 C 54.332031 45.765625 57.101562 44.433594 57.234375 44.898438 C 57.433594 45.464844 59.132812 44.867188 59.265625 44.234375 C 59.433594 43.433594 56.933594 43.5 55.101562 44.332031 Z M 55.101562 44.332031 "/>
<path style=" stroke:none;fill-rule:nonzero;fill:rgb(80%,0%,0%);fill-opacity:1;" d="M 44.765625 44.933594 C 44.535156 45.066406 43.667969 46.765625 42.832031 48.667969 C 41.367188 52.066406 40.566406 53.332031 39.898438 53.332031 C 39.535156 53.332031 39.832031 51.898438 40.535156 50.535156 C 40.800781 50 41 49.5 41 49.464844 C 41 49.398438 40.367188 49.398438 39.601562 49.464844 C 38.5 49.566406 37.964844 49.832031 37.101562 50.765625 C 35.832031 52.167969 35.398438 53.464844 36 54.167969 C 36.601562 54.867188 36.933594 54.800781 38.035156 53.699219 C 38.867188 52.832031 39 52.800781 39 53.367188 C 39 54.132812 39.898438 54.566406 40.398438 54.066406 C 40.601562 53.867188 40.933594 53.800781 41.167969 53.867188 C 41.398438 53.964844 41.734375 53.632812 41.933594 53.035156 L 42.300781 52 L 43.332031 53.035156 C 44.332031 54.035156 44.367188 54.066406 45.199219 53.5 C 45.832031 53.101562 46.167969 53.035156 46.5 53.332031 C 47.167969 53.898438 48.765625 53.464844 49.667969 52.5 C 50.667969 51.433594 50.300781 51.066406 49.132812 51.964844 C 48.199219 52.699219 47 52.898438 47 52.332031 C 47 52.167969 47.367188 51.765625 47.832031 51.464844 C 48.832031 50.800781 48.933594 50.199219 48 50.5 C 47.632812 50.601562 47.332031 50.566406 47.332031 50.398438 C 47.332031 50.035156 48.332031 49.535156 48.800781 49.632812 C 49.167969 49.699219 50 49 50 48.632812 C 50 47.964844 48.265625 48.398438 47.265625 49.300781 C 46.398438 50.066406 46.265625 50.367188 46.566406 50.734375 C 46.898438 51.101562 46.734375 51.367188 45.800781 52.132812 C 44.699219 53 44.601562 53.035156 44 52.5 C 43.398438 51.964844 43.433594 51.898438 44.699219 50.632812 C 45.398438 49.933594 46 49.199219 46 49.035156 C 46 48.5 45.234375 48.167969 45.066406 48.632812 C 44.867188 49.234375 43.300781 51 43 51 C 42.832031 51 43.367188 49.566406 44.167969 47.832031 C 45.566406 44.800781 45.667969 44.367188 44.765625 44.933594 Z M 39.667969 50.300781 C 39.667969 50.464844 39 51.332031 38.167969 52.234375 C 37.132812 53.332031 36.699219 53.667969 36.667969 53.265625 C 36.667969 52.933594 37.199219 52.066406 37.867188 51.332031 C 39.035156 50.035156 39.667969 49.667969 39.667969 50.300781 Z M 39.667969 50.300781 "/>
<path style=" stroke:none;fill-rule:nonzero;fill:rgb(80%,0%,0%);fill-opacity:1;" d="M 34.066406 46.234375 C 31.667969 47.398438 29.367188 50.601562 29.332031 52.734375 C 29.332031 53.632812 30.332031 55 30.964844 55 C 32.433594 55 35.332031 52.699219 35.332031 51.535156 C 35.332031 50.964844 35.167969 51.035156 34.101562 52.066406 C 32.601562 53.5 31.464844 54.132812 30.800781 53.867188 C 29.234375 53.265625 31.800781 48.464844 34.398438 47.132812 C 36 46.300781 36.265625 46.800781 34.933594 48.101562 C 33.5 49.464844 33.398438 49.667969 34.300781 49.667969 C 35.066406 49.667969 37 47.535156 37 46.699219 C 37 45.601562 35.734375 45.398438 34.066406 46.234375 Z M 34.066406 46.234375 "/>
<path style=" stroke:none;fill-rule:nonzero;fill:rgb(80%,0%,0%);fill-opacity:1;" d="M 41.332031 66.632812 C 41.332031 67.199219 41.5 67.667969 41.699219 67.667969 C 41.867188 67.667969 41.933594 67.5 41.832031 67.332031 C 41.734375 67.132812 41.867188 67 42.167969 67 C 42.898438 67 42.667969 65.867188 41.898438 65.734375 C 41.464844 65.632812 41.332031 65.832031 41.332031 66.632812 Z M 41.332031 66.632812 "/>
<path style=" stroke:none;fill-rule:nonzero;fill:rgb(80%,0%,0%);fill-opacity:1;" d="M 43.035156 66.734375 C 43.035156 67.332031 43.132812 67.632812 43.234375 67.398438 C 43.367188 67.066406 43.5 67.066406 43.867188 67.367188 C 44.167969 67.632812 44.332031 67.632812 44.332031 67.398438 C 44.332031 67.199219 44.066406 66.867188 43.765625 66.667969 C 43.199219 66.300781 43.199219 66.300781 43.765625 66.464844 C 44.167969 66.601562 44.332031 66.535156 44.265625 66.265625 C 44.167969 66.035156 43.867188 65.800781 43.566406 65.734375 C 43.132812 65.632812 43 65.867188 43.035156 66.734375 Z M 43.035156 66.734375 "/>
<path style=" stroke:none;fill-rule:nonzero;fill:rgb(80%,0%,0%);fill-opacity:1;" d="M 44.898438 65.898438 C 44.765625 66 44.667969 66.464844 44.667969 66.898438 C 44.667969 67.464844 44.832031 67.667969 45.433594 67.632812 C 46.132812 67.632812 46.132812 67.601562 45.5 67.332031 C 45.132812 67.167969 45.035156 67.035156 45.265625 67.035156 C 45.5 67 45.601562 66.832031 45.464844 66.632812 C 45.367188 66.433594 45.464844 66.132812 45.699219 65.964844 C 46.066406 65.734375 46.066406 65.667969 45.632812 65.667969 C 45.332031 65.667969 45 65.765625 44.898438 65.898438 Z M 44.898438 65.898438 "/>
<path style=" stroke:none;fill-rule:nonzero;fill:rgb(80%,0%,0%);fill-opacity:1;" d="M 46.332031 66.699219 C 46.332031 67.535156 46.433594 67.699219 46.667969 67.332031 C 46.832031 67.066406 47 66.964844 47 67.132812 C 47 67.300781 47.265625 67.199219 47.566406 66.964844 C 48.066406 66.566406 48.101562 66.566406 47.898438 67.066406 C 47.800781 67.398438 47.832031 67.667969 48 67.667969 C 48.199219 67.667969 48.332031 67.300781 48.332031 66.832031 C 48.332031 65.964844 47.867188 65.734375 47.464844 66.398438 C 47.300781 66.632812 47.101562 66.566406 46.765625 66.167969 C 46.367188 65.601562 46.332031 65.632812 46.332031 66.699219 Z M 46.332031 66.699219 "/>
<path style=" stroke:none;fill-rule:nonzero;fill:rgb(80%,0%,0%);fill-opacity:1;" d="M 48.734375 66.667969 C 48.734375 67.300781 48.800781 67.566406 48.898438 67.234375 C 48.964844 66.933594 48.964844 66.398438 48.898438 66.066406 C 48.800781 65.765625 48.734375 66.035156 48.734375 66.667969 Z M 48.734375 66.667969 "/>
<path style=" stroke:none;fill-rule:nonzero;fill:rgb(80%,0%,0%);fill-opacity:1;" d="M 49.566406 65.933594 C 49.132812 66.566406 49.632812 67.734375 50.265625 67.601562 C 50.632812 67.535156 50.867188 67.132812 50.898438 66.5 C 50.933594 65.933594 50.898438 65.734375 50.800781 66 C 50.265625 67.433594 50.234375 67.464844 50.035156 66.5 C 49.898438 65.832031 49.734375 65.632812 49.566406 65.933594 Z M 49.566406 65.933594 "/>
<path style=" stroke:none;fill-rule:nonzero;fill:rgb(80%,0%,0%);fill-opacity:1;" d="M 51.367188 66.667969 C 51.367188 67.765625 51.398438 67.800781 51.699219 67.035156 C 51.898438 66.5 51.898438 66.101562 51.667969 65.867188 C 51.433594 65.632812 51.332031 65.898438 51.367188 66.667969 Z M 51.367188 66.667969 "/>
<path style=" stroke:none;fill-rule:nonzero;fill:rgb(80%,0%,0%);fill-opacity:1;" d="M 52.867188 65.964844 C 52.734375 66.132812 52.800781 66.632812 52.964844 67.066406 C 53.265625 67.765625 53.300781 67.765625 53.300781 66.734375 C 53.332031 65.667969 53.199219 65.433594 52.867188 65.964844 Z M 52.867188 65.964844 "/>
<path style=" stroke:none;fill-rule:nonzero;fill:rgb(80%,0%,0%);fill-opacity:1;" d="M 54.367188 66.300781 C 54 66.964844 54.300781 67.367188 55.332031 67.734375 C 56 67.964844 56.199219 66.332031 55.601562 65.933594 C 54.964844 65.535156 54.734375 65.601562 54.367188 66.300781 Z M 55.601562 66.734375 C 55.398438 67.332031 54.667969 67.433594 54.667969 66.867188 C 54.667969 66.566406 54.898438 66.332031 55.199219 66.332031 C 55.5 66.332031 55.667969 66.5 55.601562 66.734375 Z M 55.601562 66.734375 "/>
<path style=" stroke:none;fill-rule:nonzero;fill:rgb(80%,0%,0%);fill-opacity:1;" d="M 56.433594 66.5 C 56.464844 67.132812 56.699219 67.535156 57.066406 67.601562 C 57.734375 67.734375 58.234375 66.433594 57.699219 65.898438 C 57.433594 65.632812 57.332031 65.800781 57.332031 66.5 C 57.332031 67.535156 56.867188 67.332031 56.566406 66.167969 C 56.464844 65.765625 56.398438 65.898438 56.433594 66.5 Z M 56.433594 66.5 "/>
<path style=" stroke:none;fill-rule:nonzero;fill:rgb(80%,0%,0%);fill-opacity:1;" d="M 58.765625 66.265625 C 58.867188 66.667969 58.832031 66.933594 58.667969 66.832031 C 58.535156 66.734375 58.332031 66.867188 58.234375 67.132812 C 58.101562 67.464844 58.300781 67.566406 58.867188 67.535156 C 59.800781 67.5 59.867188 67.066406 59.132812 66.132812 C 58.632812 65.5 58.632812 65.535156 58.765625 66.265625 Z M 58.765625 66.265625 "/>
<path style=" stroke:none;fill-rule:nonzero;fill:rgb(80%,0%,0%);fill-opacity:1;" d="M 60.035156 66.566406 C 60 67.398438 60.132812 67.667969 60.601562 67.667969 C 60.964844 67.667969 61.035156 67.566406 60.800781 67.398438 C 60.566406 67.265625 60.332031 66.800781 60.234375 66.332031 C 60.101562 65.632812 60.101562 65.667969 60.035156 66.566406 Z M 60.035156 66.566406 "/>
<path style=" stroke:none;fill-rule:nonzero;fill:rgb(80%,0%,0%);fill-opacity:1;" d="M 62.464844 66.199219 C 62.566406 66.5 62.667969 66.964844 62.699219 67.265625 C 62.734375 67.632812 62.800781 67.535156 62.933594 67.066406 C 63.234375 66.066406 63.734375 66.035156 64.199219 66.964844 C 64.535156 67.632812 64.601562 67.667969 64.800781 67.101562 C 64.898438 66.765625 65.101562 66.265625 65.234375 66 C 65.398438 65.566406 65.367188 65.566406 64.933594 65.933594 C 64.566406 66.234375 64.332031 66.265625 64.167969 66 C 64.066406 65.832031 63.566406 65.667969 63.101562 65.667969 C 62.464844 65.667969 62.300781 65.800781 62.464844 66.199219 Z M 62.464844 66.199219 "/>
<path style=" stroke:none;fill-rule:nonzero;fill:rgb(80%,0%,0%);fill-opacity:1;" d="M 61.332031 66.832031 C 61.332031 67.300781 61.5 67.667969 61.667969 67.667969 C 61.867188 67.667969 62 67.300781 62 66.832031 C 62 66.367188 61.867188 66 61.667969 66 C 61.5 66 61.332031 66.367188 61.332031 66.832031 Z M 61.332031 66.832031 "/>
<path style=" stroke:none;fill-rule:nonzero;fill:rgb(80%,0%,0%);fill-opacity:1;" d="M 52 67 C 52 67.167969 52.167969 67.332031 52.332031 67.332031 C 52.535156 67.332031 52.667969 67.167969 52.667969 67 C 52.667969 66.800781 52.535156 66.667969 52.332031 66.667969 C 52.167969 66.667969 52 66.800781 52 67 Z M 52 67 "/>
</g>
</svg>
